<svg width="49" height="49" viewBox="0 0 49 49" fill="none" xmlns="http://www.w3.org/2000/svg">
<circle cx="24.5" cy="24.5" r="24.5" fill="#D9D9D9"/>
<path d="M24.6667 13C26.0812 13 27.4377 13.5619 28.4379 14.5621C29.4381 15.5623 30 16.9188 30 18.3333C30 19.7478 29.4381 21.1044 28.4379 22.1046C27.4377 23.1048 26.0812 23.6667 24.6667 23.6667C23.2522 23.6667 21.8956 23.1048 20.8954 22.1046C19.8952 21.1044 19.3333 19.7478 19.3333 18.3333C19.3333 16.9188 19.8952 15.5623 20.8954 14.5621C21.8956 13.5619 23.2522 13 24.6667 13ZM24.6667 26.3333C30.56 26.3333 35.3333 28.72 35.3333 31.6667V34.3333H14V31.6667C14 28.72 18.7733 26.3333 24.6667 26.3333Z" fill="#EB0F19"/>
</svg>
